<svg version="1.1" id="_x2014_ÎÓÈ_x5F_1" xmlns="http://www.w3.org/2000/svg" xmlns:xlink="http://www.w3.org/1999/xlink"
	 x="0px" y="0px" viewBox="0 0 3000 2000" style="enable-background:new 0 0 3000 2000;" xml:space="preserve">
<rect style="fill:#FFFFFF;" width="3000" height="2000"/>
<g>
	<path style="fill:#DDE7FE;" d="M2463.57,1744.76c236.87,4.13,385.37-231.19,385.15-375.87
		c-0.24-156.29-101.85-295.42-161.64-441.23c-52.98-129.19-33.55-275.85-115.3-397.78c-99.45-148.3-322.98-191.88-513.16-244.12
		c-245.85-67.53-504.89-127.09-770.22-104.2c-186.92,16.13-370.33,74.95-501.1,176.96c-102.9,80.27-168.24,181.44-242.88,276.54
		c-77.24,98.41-177.09,163.49-273.37,248.25c-269.59,237.35-36.98,664.81,234.03,840.92
		C505.07,1724.24,2462.77,1744.75,2463.57,1744.76z"/>
	<g>
		<path style="fill:#BDD1F9;" d="M2234.04,1354.05c-0.16-0.01-0.32-0.04-0.48-0.08c-1.28-0.35-2.04-1.67-1.69-2.95
			c90.87-334.36,175.36-570.96,237.89-666.21c1.39-2.12,2.39-3.64,2.77-4.41c0.59-1.19,2.03-1.68,3.21-1.1
			c1.19,0.59,1.68,2.02,1.1,3.21c-0.51,1.04-1.47,2.51-3.07,4.93c-62.26,94.85-146.53,330.96-237.27,664.84
			C2236.21,1353.41,2235.16,1354.12,2234.04,1354.05z"/>
		<path style="fill:#BDD1F9;" d="M2514.66,666.54c-7.42,10.7-45.68,31-48.73,28.88c-3.05-2.12,2.56-45.06,9.98-55.76
			c7.42-10.7,22.11-13.36,32.82-5.94C2519.43,641.15,2522.09,655.84,2514.66,666.54z"/>
		<path style="fill:#BDD1F9;" d="M2440.66,700.45c4.17,12.65-2.8,56.41-6.41,57.6c-3.61,1.19-35.24-29.84-39.41-42.49
			c-4.17-12.65,2.7-26.29,15.36-30.47C2422.84,680.92,2436.49,687.79,2440.66,700.45z"/>
		<path style="fill:#BDD1F9;" d="M2488.91,775.35c-13.27,1.21-54.33-15.43-54.68-19.22c-0.35-3.79,37.01-27.62,50.28-28.83
			c13.27-1.22,25.01,8.56,26.23,21.82C2511.95,762.4,2502.18,774.14,2488.91,775.35z"/>
		<path style="fill:#BDD1F9;" d="M2332.63,923.33c9.25,20.36,5.53,94.64-0.28,97.28c-5.81,2.64-64.2-43.42-73.46-63.78
			c-9.25-20.36-0.25-44.37,20.12-53.62C2299.37,893.97,2323.38,902.97,2332.63,923.33z"/>
		<path style="fill:#BDD1F9;" d="M2426.71,1039.6c-21.92,4.43-93.45-15.92-94.72-22.18c-1.26-6.26,56.76-52.78,78.68-57.21
			c21.92-4.43,43.28,9.75,47.71,31.67C2462.81,1013.81,2448.63,1035.17,2426.71,1039.6z"/>
		<path style="fill:#BDD1F9;" d="M2276.72,1007.83c16.53,21.81,32.09,111.48,25.87,116.2c-6.23,4.72-88.34-34.53-104.86-56.35
			c-16.53-21.81-12.24-52.9,9.57-69.42C2229.11,981.73,2260.19,986.02,2276.72,1007.83z"/>
		<path style="fill:#BDD1F9;" d="M2410.87,1159.71c-27.24,2.63-111.75-31.15-112.5-38.92c-0.75-7.78,75.73-57.1,102.97-59.73
			c27.24-2.63,51.46,17.32,54.09,44.56C2458.07,1132.87,2438.11,1157.08,2410.87,1159.71z"/>
		<path style="fill:#BDD1F9;" d="M2243.63,1116.96c16.53,21.81,32.09,111.48,25.87,116.2c-6.23,4.72-88.34-34.53-104.86-56.35
			c-16.53-21.81-12.24-52.9,9.57-69.42C2196.02,1090.86,2227.11,1095.14,2243.63,1116.96z"/>
		<path style="fill:#BDD1F9;" d="M2377.79,1268.84c-27.24,2.63-111.75-31.15-112.5-38.92c-0.75-7.77,75.73-57.1,102.98-59.73
			c27.24-2.63,51.46,17.32,54.09,44.56C2424.98,1241.99,2405.03,1266.21,2377.79,1268.84z"/>
		<path style="fill:#BDD1F9;" d="M2168.4,1254.98c23.59,13.88,72.14,90.85,68.18,97.59s-94.83,1.72-118.42-12.16
			c-23.59-13.88-31.47-44.25-17.59-67.84C2114.44,1248.98,2144.81,1241.1,2168.4,1254.98z"/>
		<path style="fill:#BDD1F9;" d="M2348.83,1376.67c-26.7,6.01-114.77-16.93-116.48-24.55c-1.72-7.62,68-66.12,94.7-72.13
			c26.7-6.02,53.22,10.75,59.24,37.45C2392.29,1344.13,2375.52,1370.65,2348.83,1376.67z"/>
		<path style="fill:#BDD1F9;" d="M2407.36,769.84c4.24,12.86-2.84,57.31-6.51,58.52c-3.67,1.21-35.81-30.32-40.04-43.17
			c-4.24-12.86,2.75-26.72,15.6-30.95C2389.26,749.99,2403.12,756.98,2407.36,769.84z"/>
		<path style="fill:#BDD1F9;" d="M2454.65,846.81c-13.48,1.23-55.2-15.68-55.55-19.53c-0.35-3.85,37.6-28.06,51.08-29.29
			c13.48-1.23,25.41,8.69,26.64,22.17C2478.06,833.65,2468.13,845.58,2454.65,846.81z"/>
		<path style="fill:#BDD1F9;" d="M2368.95,834.48c7.5,17.71,2.65,81.48-2.41,83.62c-5.05,2.14-54.23-38.75-61.73-56.46
			c-7.5-17.71,0.78-38.15,18.49-45.65C2341.02,808.49,2361.45,816.77,2368.95,834.48z"/>
		<path style="fill:#BDD1F9;" d="M2444.85,943.68c-19.15,1.75-78.42-22.27-78.92-27.74c-0.5-5.47,53.42-39.86,72.57-41.62
			c19.15-1.75,36.1,12.35,37.86,31.5C2478.11,924.98,2464,941.93,2444.85,943.68z"/>
	</g>
	<g>
		<path style="fill:#BDD1F9;" d="M807.6,1497.74c0.1-0.08,0.19-0.17,0.28-0.27c0.7-0.8,0.61-2.02-0.19-2.72
			c-209.74-182.34-371.61-302.37-455.79-337.97c-1.87-0.79-3.22-1.36-3.81-1.71c-0.92-0.53-2.1-0.21-2.63,0.7
			c-0.53,0.92-0.22,2.1,0.7,2.63c0.8,0.46,2.1,1.01,4.24,1.92c83.82,35.45,245.32,155.25,454.76,337.33
			C805.87,1498.28,806.89,1498.29,807.6,1497.74z"/>
		<path style="fill:#BDD1F9;" d="M313.83,1164.64c9.72,3.82,44.28,0.29,45.37-2.49c1.09-2.78-21.81-28.9-31.53-32.72
			c-9.72-3.82-20.7,0.96-24.52,10.68C299.33,1149.83,304.11,1160.81,313.83,1164.64z"/>
		<path style="fill:#BDD1F9;" d="M378.29,1154.23c2.86,10.3,27.03,36.35,29.97,35.53c2.94-0.82,10.18-35.61,7.32-45.91
			c-2.86-10.3-13.53-16.32-23.83-13.46S375.43,1143.93,378.29,1154.23z"/>
		<path style="fill:#BDD1F9;" d="M379.54,1225.68c9.39-5.11,29.33-34.52,27.87-37.2s-36.99-1.9-46.38,3.21
			c-9.39,5.11-12.85,16.86-7.75,26.25C358.4,1227.33,370.15,1230.79,379.54,1225.68z"/>
		<path style="fill:#BDD1F9;" d="M549.74,1254.61c2.92,17.7,38.53,65.55,43.58,64.72c5.05-0.83,23.43-57.58,20.51-75.28
			c-2.92-17.7-19.63-29.68-37.33-26.77C558.8,1220.19,546.82,1236.91,549.74,1254.61z"/>
		<path style="fill:#BDD1F9;" d="M538.89,1374.08c16.59-6.83,55.19-52.3,53.24-57.04c-1.95-4.74-61.38-9.86-77.97-3.03
			c-16.59,6.83-24.5,25.81-17.67,42.4C503.32,1373,522.3,1380.91,538.89,1374.08z"/>
		<path style="fill:#BDD1F9;" d="M624.7,1285.99c-1.29,21.91,28.34,88.63,34.6,89c6.25,0.37,43.48-62.43,44.76-84.34
			c1.29-21.92-15.44-40.72-37.35-42.01C644.79,1247.36,625.98,1264.08,624.7,1285.99z"/>
		<path style="fill:#BDD1F9;" d="M603.03,1447.08c19.33-10.4,60.6-70.62,57.63-76.13c-2.97-5.52-75.96-4.28-95.29,6.12
			c-19.33,10.4-26.58,34.5-16.18,53.83C559.59,1450.24,583.7,1457.48,603.03,1447.08z"/>
		<path style="fill:#BDD1F9;" d="M695.44,1343.97c-1.29,21.92,28.34,88.63,34.59,89c6.26,0.37,43.48-62.43,44.77-84.34
			c1.29-21.92-15.44-40.72-37.35-42.01C715.53,1305.34,696.72,1322.06,695.44,1343.97z"/>
		<path style="fill:#BDD1F9;" d="M673.76,1505.07c19.33-10.4,60.6-70.62,57.63-76.13c-2.97-5.52-75.96-4.28-95.29,6.12
			c-19.33,10.4-26.57,34.5-16.17,53.83C630.33,1508.23,654.43,1515.47,673.76,1505.07z"/>
		<path style="fill:#BDD1F9;" d="M807.16,1402.42c-9.54,19.77-7.56,92.75-1.91,95.47c5.64,2.72,63.98-41.16,73.52-60.93
			c9.54-19.77,1.24-43.53-18.53-53.07C840.46,1374.35,816.7,1382.64,807.16,1402.42z"/>
		<path style="fill:#BDD1F9;" d="M741.18,1564.03c20.48-7.9,68.95-62.49,66.7-68.33c-2.26-5.85-74.83-13.74-95.31-5.84
			c-20.48,7.9-30.68,30.91-22.78,51.39C697.69,1561.73,720.7,1571.93,741.18,1564.03z"/>
		<path style="fill:#BDD1F9;" d="M431.44,1185.62c2.91,10.46,27.46,36.93,30.45,36.1c2.99-0.83,10.34-36.18,7.43-46.64
			c-2.91-10.46-13.75-16.58-24.21-13.67C434.66,1164.32,428.53,1175.16,431.44,1185.62z"/>
		<path style="fill:#BDD1F9;" d="M434.26,1258.04c9.54-5.19,29.8-35.08,28.32-37.8c-1.48-2.72-37.58-1.93-47.12,3.26
			c-9.54,5.19-13.06,17.13-7.87,26.67C412.78,1259.7,424.72,1263.23,434.26,1258.04z"/>
		<path style="fill:#BDD1F9;" d="M485.88,1211.58c2.9,15.15,34.58,55.5,38.91,54.67c4.32-0.83,18.86-50.02,15.96-65.17
			c-2.9-15.15-17.54-25.08-32.69-22.18C492.91,1181.79,482.98,1196.43,485.88,1211.58z"/>
		<path style="fill:#BDD1F9;" d="M484,1318.24c13.55-7.38,42.34-49.83,40.23-53.7c-2.1-3.87-53.39-2.74-66.94,4.63
			c-13.55,7.38-18.56,24.34-11.18,37.89S470.45,1325.61,484,1318.24z"/>
	</g>
	<g>
		<path style="fill:#7C9AF2;" d="M998.03,1452.57c0,0,197.23-252.85-289.06-516.01C708.97,936.56,643.69,1502.3,998.03,1452.57z"/>
		<path style="fill:#91B5F8;" d="M708.44,935.59l308.58,481.29C1051.37,1338.84,1086.8,1140.34,708.44,935.59z"/>
		<path style="fill:#060633;" d="M1003.86,1397.47c0.21,0.03,0.43-0.02,0.63-0.14c0.43-0.28,0.56-0.85,0.28-1.29L709.22,935.08
			c-0.28-0.43-0.86-0.56-1.29-0.28c-0.43,0.28-0.56,0.85-0.28,1.29l295.55,460.96C1003.35,1397.29,1003.6,1397.44,1003.86,1397.47z"
			/>
		<path style="fill:#060633;" d="M862.6,1177.15c0.45,0.06,0.9-0.22,1.02-0.68c0.14-0.5-0.16-1.01-0.65-1.14l-146.77-39.94
			c-0.48-0.16-1.01,0.16-1.14,0.65c-0.14,0.5,0.16,1.01,0.65,1.14l146.77,39.94C862.52,1177.14,862.56,1177.15,862.6,1177.15z"/>
		<path style="fill:#060633;" d="M925.91,1275.9c0.06,0.01,0.12,0.01,0.19,0.01c0.51-0.04,0.9-0.48,0.87-0.99l-10.2-148.97
			c-0.04-0.51-0.49-0.91-0.99-0.87c-0.51,0.04-0.9,0.48-0.87,0.99l10.2,148.97C925.14,1275.49,925.48,1275.84,925.91,1275.9z"/>
	</g>
	<g>
		<path style="fill:#91B5F8;" d="M981.28,1537.44c0,0-56.48-345.66-628.12-150.9C353.16,1386.54,758.37,1858.44,981.28,1537.44z"/>
		<path style="fill:#7C9AF2;" d="M353.16,1386.54l628.12,150.9C981.28,1537.44,816.02,1875.84,353.16,1386.54z"/>
		<path style="fill:#91B5F8;" d="M517.99,1489.65c0.09-0.01,0.17-0.02,0.26-0.04l145.54-32.2c1.1-0.25,1.8-1.33,1.55-2.44
			c-0.24-1.1-1.35-1.78-2.44-1.55l-145.54,32.21c-1.1,0.24-1.8,1.33-1.55,2.44C516.04,1489.07,516.98,1489.74,517.99,1489.65z"/>
		<path style="fill:#91B5F8;" d="M726.92,1585.05c0.15-0.01,0.3-0.04,0.46-0.1l187.36-61.72c1.07-0.35,1.65-1.51,1.3-2.58
			c-0.35-1.07-1.5-1.66-2.58-1.3l-187.36,61.72c-1.07,0.35-1.65,1.51-1.3,2.58C725.1,1584.58,725.99,1585.14,726.92,1585.05z"/>
	</g>
	<g>
		<path style="fill:#7C9AF2;" d="M2187.73,1582.07c0,0-140.28-279.05,374.29-437.88C2562.03,1144.19,2516.73,1697,2187.73,1582.07z"
			/>
		<path style="fill:#91B5F8;" d="M2562.72,1143.36l-386.33,401C2158.42,1463.29,2162.35,1266.94,2562.72,1143.36z"/>
		<path style="fill:#060633;" d="M2192.65,1528.33c-0.21-0.01-0.41-0.1-0.57-0.25c-0.36-0.35-0.37-0.92-0.02-1.28l370.01-384.07
			c0.35-0.36,0.93-0.37,1.28-0.02c0.36,0.35,0.37,0.92,0.02,1.28l-370.01,384.07C2193.17,1528.25,2192.9,1528.35,2192.65,1528.33z"
			/>
		<path style="fill:#060633;" d="M2369.5,1344.76c-0.45-0.03-0.81-0.38-0.85-0.84c-0.04-0.5,0.34-0.93,0.84-0.97l147.79-10.22
			c0.49-0.06,0.93,0.34,0.97,0.84c0.04,0.5-0.34,0.93-0.84,0.97l-147.79,10.22C2369.58,1344.77,2369.54,1344.76,2369.5,1344.76z"/>
		<path style="fill:#060633;" d="M2290.24,1427.03c-0.06,0-0.12-0.01-0.18-0.03c-0.48-0.13-0.77-0.63-0.64-1.11l38.08-140.35
			c0.13-0.49,0.64-0.78,1.11-0.64c0.48,0.13,0.77,0.63,0.64,1.11l-38.08,140.35C2291.06,1426.79,2290.66,1427.06,2290.24,1427.03z"
			/>
	</g>
	<g>
		<path style="fill:#91B5F8;" d="M2179.58,1574.28c0,0,36.35-257.31,463.51-122.01C2643.09,1452.27,2350.08,1808.82,2179.58,1574.28
			z"/>
		<path style="fill:#7C9AF2;" d="M2643.09,1452.27l-463.51,122.01C2179.58,1574.28,2307.6,1822.65,2643.09,1452.27z"/>
		<path style="fill:#91B5F8;" d="M2522.48,1531.4c-0.07,0-0.13-0.01-0.19-0.03l-108.48-21.55c-0.82-0.16-1.36-0.96-1.19-1.78
			c0.16-0.82,0.97-1.34,1.78-1.19l108.48,21.55c0.82,0.16,1.36,0.96,1.19,1.78C2523.92,1530.94,2523.22,1531.45,2522.48,1531.4z"/>
		<path style="fill:#91B5F8;" d="M2369.03,1605.52c-0.11-0.01-0.23-0.03-0.34-0.06l-139.97-42.78c-0.8-0.24-1.25-1.09-1.01-1.89
			c0.24-0.8,1.08-1.26,1.89-1.01l139.97,42.78c0.8,0.25,1.25,1.09,1.01,1.89C2370.37,1605.14,2369.71,1605.57,2369.03,1605.52z"/>
	</g>
	<path style="fill:#BDD1F9;" d="M1247.56,513.5c-0.75-1.78-1.52-3.54-2.31-5.3c-4.51-10.05-9.62-19.77-15.31-29.11
		c-10.86-17.83-23.84-34.33-38.81-49.29c-24.18-24.18-52.34-43.17-83.71-56.44c-32.06-13.56-66.07-20.52-101.14-20.69
		c-0.46-0.01-0.92-0.01-1.38-0.01c-0.46,0-0.92,0.01-1.38,0.01c-35.06,0.17-69.08,7.13-101.14,20.69
		c-31.36,13.27-59.52,32.26-83.7,56.44c-13.75,13.75-25.82,28.79-36.11,44.97c-5.88,9.23-11.18,18.84-15.87,28.8
		c-1.55,3.27-3.03,6.58-4.45,9.93c-13.74,32.48-20.7,66.97-20.7,102.51s6.96,70.03,20.7,102.51c1.69,3.99,3.46,7.93,5.34,11.81
		c4.77,9.92,10.15,19.49,16.11,28.68c10.04,15.51,21.73,29.96,34.98,43.21c24.18,24.18,52.34,43.17,83.7,56.44
		c32.06,13.56,66.08,20.52,101.14,20.69c0.46,0.01,0.92,0.01,1.38,0.01c0.46,0,0.92-0.01,1.38-0.01
		c35.06-0.17,69.08-7.13,101.14-20.69c31.36-13.27,59.52-32.26,83.71-56.44c14.46-14.46,27.06-30.34,37.69-47.48
		c5.77-9.3,10.96-18.98,15.55-28.99c1.1-2.39,2.16-4.8,3.19-7.23c13.74-32.48,20.7-66.97,20.7-102.51S1261.3,545.98,1247.56,513.5z
		 M1213.99,713.19c-23.19-8.32-49.13-15.08-76.96-20.13c3.83-24.65,5.81-50.56,5.81-77.05c0-25.67-1.86-50.8-5.46-74.76
		c28.06-5.11,54.2-11.96,77.53-20.4c0.82,1.8,1.62,3.62,2.39,5.45c12.02,28.41,18.1,58.59,18.1,89.71c0,31.13-6.09,61.31-18.1,89.71
		C1216.24,708.24,1215.13,710.72,1213.99,713.19z M899.85,616.01c0-24.57,1.8-48.53,5.28-71.24c33.32,4.88,68.9,7.43,105.44,7.43
		c32.51,0,64.29-2.02,94.37-5.9c3.33,22.26,5.05,45.7,5.05,69.72c0,24.85-1.84,49.08-5.4,72.02c-29.98-3.86-61.63-5.86-94.02-5.86
		c-36.4,0-71.87,2.52-105.08,7.38C901.77,666.16,899.85,641.41,899.85,616.01z M1094.63,403.62c27.45,11.61,52.1,28.23,73.27,49.4
		c11.82,11.82,22.23,24.73,31.13,38.6c-20.51,7.1-43.29,12.92-67.7,17.36c-6.23-27.43-14.89-52.74-25.76-74.83
		c-6.36-12.93-13.33-24.43-20.79-34.43C1088.08,400.94,1091.36,402.25,1094.63,403.62z M1041.5,400.95
		c12.59,10.83,24.55,27.33,34.59,47.71c9.47,19.25,17.1,41.32,22.7,65.31c-28.08,3.53-57.77,5.37-88.22,5.37
		c-34.45,0-67.91-2.35-99.18-6.84c5.57-23.42,13.08-44.98,22.36-63.84c10.03-20.39,21.99-36.88,34.58-47.71
		c11.91-10.24,24.23-15.43,36.58-15.43C1017.28,385.52,1029.58,390.71,1041.5,400.95z M841.93,453.03
		c21.17-21.17,45.82-37.79,73.27-49.4c3.26-1.38,6.54-2.68,9.85-3.9c-7.46,10-14.43,21.5-20.79,34.43
		c-10.59,21.53-19.1,46.13-25.28,72.75c-23.95-4.86-46.17-11.09-66.02-18.58C821.38,475.7,831.05,463.91,841.93,453.03z
		 M792.53,705.72c-12.01-28.41-18.1-58.59-18.1-89.71c0-31.13,6.09-61.31,18.1-89.71c1.3-3.06,2.65-6.09,4.08-9.07
		c0.39,0.16,0.78,0.31,1.17,0.46c22.43,8.74,47.71,15.94,75,21.46c-3.81,24.59-5.78,50.44-5.78,76.86c0,27.24,2.1,53.87,6.14,79.15
		c-27.43,5.53-52.83,12.75-75.36,21.53c-0.08,0.03-0.15,0.06-0.23,0.09C795.78,713.14,794.11,709.46,792.53,705.72z M915.2,828.4
		c-27.45-11.61-52.1-28.23-73.27-49.4c-10.34-10.33-19.59-21.5-27.7-33.42c19.67-7.34,41.64-13.45,65.28-18.21
		c6.14,25.77,14.46,49.58,24.75,70.51c6.36,12.93,13.33,24.43,20.79,34.43C921.74,831.08,918.46,829.78,915.2,828.4z M968.33,831.07
		c-12.59-10.83-24.55-27.33-34.58-47.71c-8.98-18.24-16.3-39.02-21.81-61.57c31.11-4.44,64.38-6.76,98.63-6.76
		c30.26,0,59.77,1.81,87.69,5.3c-5.55,23.11-12.99,44.39-22.16,63.02c-10.04,20.39-22,36.88-34.59,47.71
		c-11.91,10.24-24.22,15.43-36.58,15.43C992.56,846.5,980.24,841.31,968.33,831.07z M1167.9,779
		c-21.17,21.17-45.82,37.79-73.27,49.4c-3.26,1.38-6.54,2.68-9.85,3.9c7.46-10,14.43-21.5,20.79-34.43
		c10.57-21.49,19.06-46.02,25.24-72.58c24.11,4.36,46.64,10.07,66.97,17.03C1189.15,755.47,1179.17,767.72,1167.9,779z"/>
	<ellipse style="fill:#BDD1F9;" cx="1533.92" cy="1692.59" rx="1232.09" ry="85.49"/>
	<g>
		<path style="fill:#050521;" d="M2203.66,1628.97H971.94c-18.47,0-33.59-15.11-33.59-33.59V696.65c0-18.47,15.11-33.59,33.59-33.59
			h1231.72c18.47,0,33.59,15.11,33.59,33.59v898.73C2237.25,1613.86,2222.13,1628.97,2203.66,1628.97z"/>
		<rect x="967.65" y="696.82" style="fill:#FFFFFF;" width="1240.3" height="922.33"/>
		<rect x="810.07" y="1591.43" style="fill:#050521;" width="1555.45" height="61.83"/>
		<rect x="992.08" y="716.41" style="fill:#E7EEFD;" width="1191.43" height="847.4"/>
	</g>
	<g>
		<g>
			<path style="fill:#F96058;" d="M555.32,1047.81c-0.59,8.87,2.84,17.98,0.38,26.51c-3.27,11.31-15.61,17.59-20.86,28.12
				c-5.49,11.04-2.6,25.54-10.37,35.11c-2.76,3.41-6.6,5.77-9.54,9.03c-6.77,7.51-7.58,19.74-1.85,28.07
				c6.38,9.28,18.69,12.53,29.95,12.46c11.26-0.07,22.44-2.72,33.69-2.19c11.44,0.54,22.63,4.38,34.08,4
				c15.85-0.52,30.69-9.28,40.98-21.34c10.29-12.06,16.45-27.16,20.39-42.52c1.5-5.86,2.7-11.81,3.03-17.85
				c1.29-23.5-10.61-45.68-24.38-64.77c-6.29-8.71-13.39-17.38-23.12-21.94C605.6,1010.18,557.35,1017.14,555.32,1047.81z"/>
			<g>
				<path style="fill:#FB9391;" d="M665.32,1635.7c0,0-4.03,39.74,4.09,44.25c14.69,8.16,41.8,15.95,39.53,22.96
					c-2.27,7.01-67.23,7.28-69.03,0.89c-1.8-6.39,5.48-25.96-2.24-64.04L665.32,1635.7z"/>
				<path style="fill:#0B0755;" d="M640.55,1689.53c-0.69,7.12-1.29,12-0.65,14.27c1.8,6.39,66.77,6.12,69.03-0.89
					c1.68-5.2-12.66-11.06-26.28-16.9C679.44,1691.42,672.57,1699.85,640.55,1689.53z"/>
			</g>
			<g>
				<path style="fill:#FB9391;" d="M543.47,1634.56c0,0-10.73,38.48-3.51,44.3c13.09,10.55,38.47,22.83,35.04,29.36
					c-3.43,6.52-67.49-4.27-68.18-10.88c-0.69-6.61,9.82-24.65,8.7-63.48L543.47,1634.56z"/>
				<path style="fill:#0B0755;" d="M509.9,1683.39c-1.89,6.89-3.32,11.6-3.07,13.96c0.69,6.61,64.75,17.4,68.18,10.88
					c2.54-4.84-10.59-13.06-23.01-21.13C547.9,1691.87,539.7,1699.01,509.9,1683.39z"/>
			</g>
			<path style="fill:#FB9391;" d="M690.15,1180.12c0,0,13.65,18.28,25.02,18.28c11.37,0,50.04-48.33,50.04-48.33l9.1,14.64
				c0,0-32.41,70.65-61.98,71.22c-29.57,0.57-51.74-32.41-51.17-34.12c0.57-1.71,19.33-21.69,19.33-21.69H690.15z"/>
			<path style="fill:#0B0755;" d="M657.74,1283.4c0,0,17.64,21.38,25.61,46.39c7.96,25.02-13.16,321.43-13.16,321.43h-35.26
				c0,0-18.7-263.97-18.7-266.32c0-9.22-69.42,266.32-69.42,266.32h-35.2c0,0,19.05-322.63,63.26-367.83l41.37,2.56L657.74,1283.4z"
				/>
			<path style="fill:#060633;" d="M657.74,1272.31v11.09c0,0-21.04,20.47-82.87,0l-0.14-11.09l54.3-3.41L657.74,1272.31z"/>
			<path style="fill:#FFFFFF;" d="M636.72,1138.58c0,0,21.91-0.81,33.03,6.86c7.96,5.49,25.52,36.46,25.52,36.46l-20.16,17.14
				c0,0,4.81,18.69-13.97,28.07l-3.4,45.21c0,0-35.25,20.47-83.02,0c0,0-9.1-84.72-17.63-77.33c-8.53,7.39-13.65,13.93-13.65,13.93
				l-31.84-31.56c0,0,34.71-34.78,46.2-40.23c26.95-12.79,48.74-0.49,48.74-0.49L636.72,1138.58z"/>
			<path style="fill:#FB9391;" d="M540.47,1205.96c0,0-18.48,21.58-16.35,27.54c2.13,5.97,34.77,55.13,39.13,64.45
				c4.37,9.32,3.09,14.87,3.09,14.87l-16.63,8.1c0,0-0.86-13.16-4.48-17.03c-3.62-3.87-58.63-60.59-57.35-78.5
				c1.28-17.91,26.53-45.28,26.53-45.28L540.47,1205.96z"/>
			<g>
				<path style="fill:#FB9391;" d="M646.34,1069.22c0,0,2.41-4.73,4.92-3.2c6.39,3.89,0.73,10.67-3.03,12.42L646.34,1069.22z"/>
				<path style="fill:#FB9391;" d="M603.29,1020.07c-17.83,3.22-30.63,19.57-29.53,37.66c0.36,5.95,2.14,11.43,4.95,16.18
					c6.37,11.92,11.61,21.51,17.53,28.25c6,6.83,9.39,15.57,9.13,24.66l-0.26,9.18c22.05,8.04,30.66,2.51,30.66,2.51l-3.06-26.8l0,0
					c22.25-5.27,14.49-46.56,13.08-58.87l-0.03,0.01c-0.04-0.46-0.07-0.93-0.12-1.39C643.28,1030.88,624.02,1016.32,603.29,1020.07z
					"/>
				<path style="fill:#F96058;" d="M604.61,1056.66c-5.45,8.17-11.32,16.24-15.05,25.3c-0.41,0.99-3.3,8.46-2.14,9.15
					c-6.32-3.76-10.8-9.93-14.69-16.17c-6.75-10.81-6.73-24.73-1.29-36.07c5.38-11.21,15.8-17.91,27.83-20.29
					c12.9-2.55,27.62,0.2,36.82,10.16c8.64,9.35,10.46,22.21,12.69,34.22c-2.51-13.48-21.94-21.52-33.43-25.07
					c0.33,0.1-6.8,12.67-7.19,13.29C607.01,1053.02,605.82,1054.84,604.61,1056.66z"/>
				<path style="fill:#FB9391;" d="M590.79,1082.71c-0.71-1.09-1.82-1.86-3.08-2.21c-2.59-0.71-7.08-1.31-9.74,2.04
					c-3.9,4.91,6.29,15.57,14.38,8.76C592.36,1091.3,594.58,1088.52,590.79,1082.71z"/>
				<path style="fill:#060633;" d="M640.44,1070.24c-0.03-1.74-1.46-3.12-3.2-3.09c-1.74,0.03-3.12,1.46-3.09,3.2
					c0.03,1.74,1.46,3.12,3.2,3.09C639.09,1073.41,640.47,1071.98,640.44,1070.24z"/>
				<path style="fill:#060633;" d="M611.29,1076.93c-0.03-1.74-1.46-3.12-3.2-3.09c-1.74,0.03-3.12,1.46-3.09,3.2
					c0.03,1.74,1.46,3.12,3.2,3.09C609.93,1080.1,611.32,1078.66,611.29,1076.93z"/>
				<path style="fill:#FA7267;" d="M637.29,1092.31c0,0-4.15-2.99-5.74-2.49c-1.59,0.5-2.41,2.47-2.41,2.47s-1.02-1.91-2.98-1.87
					c-1.96,0.04-6.01,5.44-6.01,5.44s5.85,8.44,11.74,7.16c6-1.3,5.34-10.27,5.34-10.27L637.29,1092.31z"/>
				<path style="fill:#060633;" d="M601.44,1073.32c-0.37,0.05-0.76-0.07-1.06-0.34c-0.53-0.49-0.56-1.32-0.07-1.85
					c0.15-0.16,3.71-3.89,9.55-4.37c0.72-0.06,1.35,0.47,1.41,1.2c0.06,0.72-0.53,1.37-1.19,1.41c-4.87,0.41-7.83,3.51-7.86,3.55
					C602.02,1073.15,601.74,1073.28,601.44,1073.32z"/>
				<path style="fill:#060633;" d="M631.49,1064.05c-0.37-0.04-0.73-0.24-0.95-0.58c-0.4-0.6-0.23-1.41,0.37-1.81
					c0.18-0.12,4.47-2.91,10.31-1.99c0.72,0.11,1.2,0.78,1.09,1.5c-0.11,0.71-0.81,1.21-1.5,1.09c-4.83-0.76-8.43,1.56-8.47,1.59
					C632.09,1064.02,631.78,1064.09,631.49,1064.05z"/>
				<path style="fill:#EA6868;" d="M626.73,1087.24c3.63-0.99,4.55-3.91,4.48-5.52c-0.01-0.28-0.13-0.55-0.33-0.75
					c-3.78-3.67-4.12-9.63-4.12-9.69c-0.03-0.61-0.55-1.08-1.15-1.05c-0.6,0.03-1.08,0.54-1.05,1.15c0.01,0.27,0.35,6.52,4.43,10.81
					c-0.12,0.89-0.78,2.92-4.32,3.15c-0.62,0.04-1.07,0.56-1.03,1.17c0.04,0.61,0.56,1.07,1.17,1.03
					C625.52,1087.5,626.16,1087.39,626.73,1087.24z"/>
				<path style="fill:#FAFAFC;" d="M637.29,1092.31l-17.14,3.55c0,0,6.42,4.21,11.07,3.51
					C635.87,1098.68,637.29,1092.31,637.29,1092.31z"/>
			</g>
			<g>
				<path style="fill:#FB9391;" d="M557.2,1288.27c0,0,14.44,20.26,12.97,24.97c-1.47,4.71-7.66,17.96-8.13,20.29
					c-0.48,2.33-0.19,14.88-1.47,16.83c-1.28,1.95-4.35-13.46-4.35-13.46s0.78,13.51-1.58,14.36c-2.35,0.85-4.44-13.57-4.44-13.57
					s1.22,13.67-1.08,13.74c-2.31,0.08-3.67-13.18-3.67-13.18s0.8,10.63-1.03,10.65c-1.83,0.02-5.9-17.36-2.32-23.47
					c8.46-14.44,5.98-22.16,5.98-22.16L557.2,1288.27z"/>
				<path style="fill:#FB9391;" d="M566.49,1302.87c0,0,7.17,12.04,7.26,16.63c0.09,4.59,1.41,13.9-0.56,13.87
					c-1.97-0.03-4.65-12.92-6.06-13.46c-1.42-0.55-1.44-6.38-1.44-6.38L566.49,1302.87z"/>
			</g>
			<path style="fill:#7C9AF2;" d="M603.44,1220.87c-15.99,0-22.66-15.99-22.72-16.15c-0.12-0.3,0.02-0.65,0.33-0.77
				c0.3-0.12,0.65,0.02,0.77,0.33c0.06,0.15,6.44,15.41,21.63,15.41c15.24,0,21.11-11.08,21.17-11.19c0.15-0.29,0.51-0.41,0.8-0.26
				c0.29,0.15,0.4,0.51,0.26,0.8C625.6,1209.16,619.4,1220.87,603.44,1220.87z"/>
			<path style="fill:#7C9AF2;" d="M675.11,1199.63c-0.29,0-0.55-0.22-0.59-0.52c-0.01-0.11-1.39-10.79-9.65-18.56
				c-0.24-0.22-0.25-0.6-0.03-0.84c0.23-0.24,0.6-0.25,0.84-0.03c8.59,8.08,9.96,18.83,10.02,19.28c0.04,0.33-0.19,0.62-0.52,0.66
				C675.16,1199.63,675.13,1199.63,675.11,1199.63z"/>
			<path style="fill:#BDD1F9;" d="M628.56,1297.08c-5.75,0-10.43-4.68-10.43-10.43c0-5.75,4.68-10.43,10.43-10.43
				c5.75,0,10.43,4.68,10.43,10.43C638.99,1292.41,634.31,1297.08,628.56,1297.08z M628.56,1280.96c-3.14,0-5.69,2.55-5.69,5.69
				c0,3.14,2.55,5.69,5.69,5.69c3.14,0,5.69-2.55,5.69-5.69C634.25,1283.52,631.7,1280.96,628.56,1280.96z"/>
		</g>
		<path style="fill:#FB9391;" d="M771.78,1140.28c0.74-1.03,12.11-17.28,12.11-17.28l14.25,20.05l-19.22,17.26L771.78,1140.28z"/>
		<path style="fill:#FB9391;" d="M765.21,1150.06c0,0-1.25-10.96,2.29-16.28c3.55-5.32,10.63-18.9,12.7-14.47
			c2.07,4.43-3.82,16.93-3.54,20.23s13.02,13.55-2.35,25.16C758.93,1176.31,765.21,1150.06,765.21,1150.06z"/>
	</g>
	<g>
		<path style="fill:#FB9391;" d="M2056.41,806.8c0,0-3.82,26.71,5.72,40.06c9.54,13.35,29.25,32.43,24.16,37.52
			c-5.09,5.09-61.68-23.53-60.41-29.89c1.27-6.36,10.17-32.43,8.27-47.69H2056.41z"/>
		<path style="fill:#060633;" d="M2029.32,841.58c-1.55,5.89-2.98,10.66-3.43,12.92c-1.27,6.36,55.32,34.97,60.41,29.89
			c3.77-3.77-6.09-15.24-15.34-26.36C2065.76,861.29,2052.58,864.77,2029.32,841.58z"/>
		<path style="fill:#FB9391;" d="M2000.55,811.12c0,0-3.82,26.71,5.72,40.06c9.54,13.35,29.25,32.43,24.16,37.52
			c-5.09,5.09-61.68-23.53-60.41-29.89c1.27-6.36,10.17-32.43,8.27-47.69H2000.55z"/>
		<path style="fill:#0B0755;" d="M1992.76,345.93c12.73,10.36,19.06,28.01,15.83,44.11c-2.64,13.11-11.08,25.51-8.96,38.72
			c0.79,4.95,3.04,9.53,4.48,14.34c2.47,8.25,2.49,17.23,0.07,25.49c-1.67,5.69-4.66,11.25-9.57,14.58
			c-3.36,2.27-7.36,3.35-11.31,4.28c-8.54,2.02-17.35,3.53-26.08,2.6c-8.73-0.93-17.46-4.56-23.03-11.35
			c-3.75-4.57-6.36-10.7-11.89-12.78c-1.89-0.71-3.94-0.85-5.96-0.99c-7.82-0.52-15.77-1.03-23.43,0.62
			c-8.17,1.76-15.85,5.94-24.2,6.24c-11.94,0.43-23.6-8.25-26.6-19.81c-3.01-11.56,2.95-24.82,13.58-30.26
			c8.42-4.31,19.61-4.5,25.14-12.17c4.64-6.44,3.17-15.55,6.72-22.65c6.17-12.34,23.62-13.13,34.21-21.97
			c10.26-8.56,14.95-21.34,28.02-26.81C1963.43,332.39,1981.67,336.9,1992.76,345.93z"/>
		<path style="fill:#FA7267;" d="M1866.5,592.34c0,0-13.39,65.05,7.93,74.22c21.32,9.16,93,25.3,97.29,38.42
			c4.29,13.12,0,120.13,0,120.13l34.11,1.01c0,0,10.66-120.86,9.67-132.58c-2.29-26.97-9.75-33.71-9.75-33.71
			s15.84,9.97,20.13,33.28c1.9,10.34,1.93,122.09,1.93,122.09l34.09,1c0,0,23.35-149.21-2.72-169.72
			c-26.07-20.51-97.5-50.23-97.5-50.23L1866.5,592.34z"/>
		<path style="fill:#FB9391;" d="M1999.81,505.33l15.69,63.28l-24.59,5.94c0,0-16.11-27.76-21.62-53.52
			C1963.77,495.27,1999.81,505.33,1999.81,505.33z"/>
		<path style="fill:#FFFFFF;" d="M1946.61,439.31c0,0,27.34,6.36,39.42,22.26c12.08,15.9,19.71,50.23,19.71,50.23l-26.07,8.27
			c0,0-1.27,19.08-13.35,24.16c0,0-7.63,29.89,0,55.32c0,0-64.22,19.08-103.65,0l-3.18-86.48l-24.16-10.17
			c0,0,12.72-55.32,42.6-63.59C1907.82,431.05,1930.15,433.59,1946.61,439.31z"/>
		<path style="fill:#FB9391;" d="M1841.1,505.33l33.34,13.15c0,0-7.93,27.2-5.38,41.01c4.06,22,34.5,44.28,49.45,43.32l-0.68,13.2
			c0,0-74.22-4.69-82.49-46.34C1827.06,528.02,1841.1,505.33,1841.1,505.33z"/>
		<path style="fill:#485F73;" d="M1979.67,520.51c0,0-0.01,0-0.01,0c-0.24-0.01-0.44-0.21-0.43-0.45
			c0.21-9.08-7.79-20.92-7.87-21.04c-0.14-0.2-0.08-0.48,0.12-0.61c0.2-0.14,0.48-0.09,0.61,0.12c0.34,0.49,8.24,12.2,8.02,21.56
			C1980.11,520.32,1979.91,520.51,1979.67,520.51z"/>
		<path style="fill:#485F73;" d="M1914.9,531.16c-6.79,0-15.09-2.26-23.9-9.8c-0.19-0.16-0.21-0.44-0.05-0.62
			c0.16-0.18,0.44-0.21,0.62-0.05c21.42,18.32,39.64,4.78,39.82,4.64c0.19-0.15,0.47-0.11,0.62,0.08c0.15,0.19,0.11,0.47-0.08,0.62
			C1931.82,526.12,1925.04,531.16,1914.9,531.16z"/>
		<path style="fill:#485F73;" d="M1878.85,520.51c-0.05,0-0.1-0.01-0.15-0.03l-4.42-1.59c-0.23-0.08-0.35-0.34-0.27-0.57
			c0.08-0.23,0.34-0.35,0.57-0.27l3.99,1.43l9.75-31.67c0.07-0.23,0.31-0.37,0.55-0.29c0.23,0.07,0.36,0.32,0.29,0.55l-9.89,32.11
			c-0.04,0.12-0.12,0.21-0.22,0.27C1878.99,520.5,1878.92,520.51,1878.85,520.51z"/>
		<path style="fill:#EA6868;" d="M1990.58,402.87c0,0,4.11-2.96,5.57-0.58c3.73,6.09-4.03,9.38-7.99,9.22L1990.58,402.87z"/>
		<path style="fill:#FB9391;" d="M1975.46,342.4c-16.54-5.03-34.53,3.26-41.47,19.09c-2.28,5.21-3.17,10.63-2.85,15.89
			c0.21,12.89,0.48,23.31,2.56,31.61c2.11,8.42,1.18,17.3-3,24.91l-1.67,3.04c-1.58,2.88-0.92,6.48,1.57,8.63
			c7.7,6.63,14.2,7.61,18.27,7.29c2.61-0.21,4.85-1.92,5.78-4.36l5.84-15.5l0,0c21.18,5.22,32.58-33.2,36.75-44.26l-0.03-0.01
			c0.17-0.41,0.34-0.82,0.5-1.24C2004.69,368.99,1994.69,348.25,1975.46,342.4z"/>
		<path style="fill:#0B0755;" d="M1960.79,374.31c-5.46,2.53-10.58,5.72-15.69,8.9c-5.4,3.36-11.04,6.97-14.07,12.57
			c-3.73-5.94-4.84-13.13-5.43-20.12c-0.27-3.24-0.44-6.54,0.26-9.72c1-4.5,3.67-8.41,6.29-12.2c3.38-4.89,6.96-9.97,12.21-12.76
			c3.48-1.85,7.45-2.55,11.38-2.84c9.16-0.68,18.61,0.83,26.68,5.23c8.07,4.4,14.63,11.83,17.09,20.68
			c3.17,11.4-0.54,23.45-4.22,34.7c0.62-5.01-0.97-10-2.53-14.8c-1.02-3.12-2.07-6.31-4.05-8.92c-3.39-4.46-4.86-4.32-10.65-12.52
			C1973.46,368.54,1967.62,371.14,1960.79,374.31z"/>
		<path style="fill:#FB9391;" d="M1937.56,390.12c-0.13-1.24-0.73-2.37-1.65-3.22c-1.89-1.74-5.44-4.19-9.15-2.51
			c-5.45,2.47-1.44,15.95,8.39,13.71C1935.15,398.09,1938.24,396.69,1937.56,390.12z"/>
		<path style="fill:#050521;" d="M1986.55,404.16c0.73-1.49,0.12-3.29-1.37-4.02c-1.49-0.73-3.29-0.12-4.02,1.37
			c-0.73,1.49-0.12,3.29,1.37,4.02C1984.02,406.26,1985.82,405.65,1986.55,404.16z"/>
		<path style="fill:#050521;" d="M1959.15,395.42c0.73-1.49,0.12-3.29-1.37-4.02c-1.49-0.73-3.29-0.12-4.02,1.37
			c-0.73,1.49-0.12,3.29,1.37,4.02C1956.61,397.52,1958.41,396.9,1959.15,395.42z"/>
		<path style="fill:#DD4E4E;" d="M1971.34,419.18c0,0-1.87-2.55-3.46-2.61c-1.59-0.06-2.95,1.46-2.95,1.46s-0.32-2.04-2.09-2.63
			c-1.77-0.59-7.2-0.79-7.2-0.79s2.23,9.04,7.96,9.39c5.74,0.35,7.58-4.58,7.58-4.58L1971.34,419.18z"/>
		<path style="fill:#050521;" d="M1965.38,420.7c-6.52-0.63-11.03-7-11.09-7.09c-0.13-0.19-0.08-0.46,0.11-0.59
			c0.19-0.13,0.46-0.09,0.59,0.11c0.3,0.43,7.34,10.35,16.5,5.43c0.21-0.11,0.46-0.03,0.57,0.17c0.11,0.21,0.04,0.46-0.17,0.57
			C1969.58,420.55,1967.38,420.9,1965.38,420.7z"/>
		<path style="fill:#0B0755;" d="M1951.42,389.06c-0.33-0.14-0.59-0.43-0.7-0.8c-0.19-0.66,0.19-1.35,0.85-1.55
			c0.2-0.06,4.95-1.36,9.96,1.11c0.62,0.3,0.88,1.05,0.57,1.67c-0.3,0.62-1.11,0.86-1.67,0.57c-4.18-2.05-8.12-0.97-8.17-0.96
			C1951.97,389.2,1951.67,389.17,1951.42,389.06z"/>
		<path style="fill:#0B0755;" d="M1981.03,396.66c-0.3-0.2-0.5-0.53-0.54-0.91c-0.07-0.69,0.43-1.3,1.12-1.37
			c0.2-0.02,5.07-0.48,9.6,2.88c0.55,0.41,0.67,1.19,0.26,1.75c-0.41,0.56-1.22,0.66-1.75,0.26c-3.75-2.78-7.82-2.41-7.86-2.4
			C1981.56,396.89,1981.27,396.81,1981.03,396.66z"/>
		<path style="fill:#EA6868;" d="M1967.51,409.16c-0.84,0-1.82-0.19-2.95-0.69c-0.22-0.1-0.33-0.36-0.23-0.58
			c0.1-0.22,0.36-0.33,0.58-0.23c3.92,1.7,5.58-0.63,5.95-1.27c-1.69-5.28,0.74-10.71,0.84-10.94c0.1-0.22,0.37-0.32,0.58-0.22
			c0.22,0.1,0.32,0.36,0.22,0.59c-0.03,0.05-2.44,5.47-0.75,10.47c0.04,0.11,0.03,0.22-0.02,0.33
			C1971.73,406.66,1970.53,409.16,1967.51,409.16z"/>
		<path style="fill:#FB9391;" d="M1917.82,616.01c0,0,3.2,2.05,7.27,2.23c4.08,0.18,16.13-0.92,18.08-0.64s11.63,4.03,13.51,3.58
			c1.87-0.45-9.25-7.16-9.25-7.16s10.3,4.4,11.62,2.8c1.32-1.6-9.31-7.27-9.31-7.27s10.46,3.19,11.17,1.42
			c0.71-1.77-9.39-4.96-9.39-4.96s9.57,1.42,10.1,0c0.53-1.42-13.29-6.56-19.14-6.2c-5.85,0.35-23.96,3-23.96,3L1917.82,616.01z"/>
		<path style="fill:#060633;" d="M1973.46,845.89c-1.55,5.89-2.98,10.66-3.43,12.92c-1.27,6.36,55.32,34.97,60.41,29.89
			c3.77-3.77-6.09-15.24-15.34-26.36C2009.9,865.61,1996.72,869.09,1973.46,845.89z"/>
		<g>
			<polygon style="fill:#060633;" points="2098.84,560.49 1986.72,550.61 1944.33,629.54 2056.45,639.42 			"/>
			
				<rect x="1891.36" y="623.2" transform="matrix(0.9961 0.0878 -0.0878 0.9961 62.3796 -166.9387)" style="fill:#060633;" width="75.35" height="4.98"/>
		</g>
		<g>
			<path style="fill:#060633;" d="M1950.93,402.38c-1.71-0.85-3.14-2.18-4.14-3.86c-1.39-2.32-1.79-5.04-1.12-7.67
				c1.37-5.41,6.88-8.7,12.29-7.34c5.41,1.37,8.7,6.88,7.34,12.29l0,0c-0.66,2.62-2.3,4.83-4.62,6.22
				c-2.32,1.39-5.04,1.79-7.67,1.12C1952.28,402.96,1951.58,402.7,1950.93,402.38z M1959.73,384.83c-0.6-0.3-1.25-0.54-1.93-0.72
				c-5.08-1.28-10.26,1.81-11.54,6.89c-0.62,2.46-0.25,5.02,1.06,7.2c1.3,2.18,3.37,3.72,5.83,4.34c2.46,0.62,5.02,0.25,7.2-1.05
				c2.18-1.3,3.72-3.37,4.34-5.83l0,0C1965.8,391.26,1963.63,386.78,1959.73,384.83z"/>
			<path style="fill:#060633;" d="M1979.3,410.87c-1.71-0.85-3.14-2.18-4.14-3.86c-1.39-2.32-1.79-5.04-1.12-7.67
				c1.37-5.41,6.88-8.71,12.29-7.34c2.62,0.66,4.83,2.3,6.21,4.63c1.39,2.32,1.79,5.05,1.12,7.67l0,0c-0.66,2.62-2.3,4.83-4.63,6.22
				c-2.32,1.39-5.04,1.79-7.67,1.12C1980.65,411.45,1979.96,411.2,1979.3,410.87z M1988.12,393.33c-0.61-0.31-1.26-0.55-1.95-0.72
				c-5.08-1.28-10.26,1.81-11.54,6.89c-1.28,5.08,1.81,10.26,6.89,11.54c2.46,0.62,5.02,0.25,7.2-1.06c2.18-1.3,3.72-3.37,4.34-5.83
				l0,0c0.62-2.46,0.25-5.02-1.05-7.2C1991.07,395.37,1989.73,394.13,1988.12,393.33z"/>
			<polygon style="fill:#060633;" points="1934.62,385.86 1934.84,385.28 1946.33,389.61 1946.11,390.19 			"/>
			<path style="fill:#060633;" d="M1964.67,397.26l-0.16-0.6c6.85-1.86,9.99,2.83,10.02,2.87l-0.52,0.34
				C1973.89,399.69,1971.07,395.53,1964.67,397.26z"/>
		</g>
		<path style="fill:#FFFFFF;" d="M2023.84,594.1c0.58-2.2,2.62-3.57,4.56-3.06c1.94,0.51,3.04,2.7,2.46,4.9
			c-0.58,2.2-2.62,3.57-4.56,3.06C2024.36,598.49,2023.26,596.29,2023.84,594.1z"/>
	</g>
	<g>
		<rect x="772.91" y="1071.38" style="fill:#FA7267;" width="112.71" height="582.21"/>
		<rect x="810.17" y="1071.38" style="fill:#E8615B;" width="40.94" height="583.18"/>
		<polygon style="fill:#FFFFFF;" points="830.65,960.7 772.91,1071.38 885.62,1071.38 		"/>
		<polygon style="fill:#060633;" points="830.65,960.7 801.78,1016.04 858.13,1016.04 		"/>
		<rect x="772.91" y="1648.94" style="fill:#474FEA;" width="112.71" height="63.66"/>
		<rect x="772.91" y="1626.5" style="fill:#FFFFFF;" width="112.71" height="27.1"/>
	</g>
	<g>
		<rect x="1033.18" y="578.12" style="fill:#FFFFFF;" width="725.54" height="935.36"/>
		<rect x="1033.18" y="578.12" style="fill:#474FEA;" width="725.54" height="68.63"/>
		<g>
			<path style="fill:#DDE7FE;" d="M1062.52,612.02c0-4.53,3.67-8.2,8.21-8.2c4.53,0,8.2,3.67,8.2,8.2c0,4.53-3.67,8.21-8.2,8.21
				C1066.19,620.23,1062.52,616.56,1062.52,612.02z"/>
			<path style="fill:#DDE7FE;" d="M1096.96,612.02c0-4.53,3.67-8.2,8.2-8.2c4.53,0,8.21,3.67,8.21,8.2c0,4.53-3.67,8.21-8.21,8.21
				C1100.63,620.23,1096.96,616.56,1096.96,612.02z"/>
			<path style="fill:#DDE7FE;" d="M1131.4,612.02c0-4.53,3.67-8.2,8.21-8.2c4.53,0,8.2,3.67,8.2,8.2c0,4.53-3.67,8.21-8.2,8.21
				C1135.07,620.23,1131.4,616.56,1131.4,612.02z"/>
		</g>
		<g>
			<rect x="1090.68" y="701.21" style="fill:#DDE7FE;" width="205.67" height="205.66"/>
			<g>
				<polygon style="fill:#BDD1F9;" points="1106.12,883.38 1166.87,773.86 1211.54,834.78 1233.85,810.4 1281.11,883.38 				"/>
				<path style="fill:#BDD1F9;" d="M1195.82,758.13c0-8.68,7.04-15.72,15.72-15.72s15.72,7.04,15.72,15.72
					c0,8.68-7.04,15.72-15.72,15.72S1195.82,766.82,1195.82,758.13z"/>
			</g>
		</g>
		<rect x="1549.71" y="700.99" style="fill:#FA7267;" width="146.06" height="22.04"/>
		<rect x="1344.49" y="700.99" style="fill:#FA7267;" width="179.14" height="22.04"/>
		<g>
			<rect x="1344.49" y="766.3" style="fill:#BDD1F9;" width="208.78" height="10.08"/>
			<rect x="1566.29" y="766.3" style="fill:#BDD1F9;" width="62.53" height="10.08"/>
			<rect x="1344.49" y="797.54" style="fill:#BDD1F9;" width="85.05" height="10.08"/>
			<rect x="1438.17" y="797.54" style="fill:#BDD1F9;" width="112.81" height="10.08"/>
			<rect x="1566.29" y="797.54" style="fill:#BDD1F9;" width="62.53" height="10.08"/>
			<rect x="1344.49" y="824.56" style="fill:#BDD1F9;" width="111.81" height="10.08"/>
			<rect x="1474.11" y="824.56" style="fill:#BDD1F9;" width="176.46" height="10.08"/>
		</g>
		<g>
			<rect x="1344.49" y="865.55" style="fill:#BDD1F9;" width="208.78" height="10.08"/>
			<rect x="1566.29" y="865.55" style="fill:#BDD1F9;" width="62.53" height="10.08"/>
			<rect x="1344.49" y="896.8" style="fill:#BDD1F9;" width="85.05" height="10.08"/>
			<rect x="1438.17" y="896.8" style="fill:#BDD1F9;" width="112.81" height="10.08"/>
		</g>
		<g>
			<rect x="1089.01" y="1021.33" style="fill:#BDD1F9;" width="348.54" height="13.29"/>
			<rect x="1459.27" y="1021.33" style="fill:#BDD1F9;" width="104.39" height="13.29"/>
			<rect x="1089.01" y="1062.54" style="fill:#BDD1F9;" width="141.98" height="13.29"/>
			<rect x="1245.4" y="1062.54" style="fill:#BDD1F9;" width="188.33" height="13.29"/>
			<rect x="1459.27" y="1062.54" style="fill:#BDD1F9;" width="104.39" height="13.29"/>
			<rect x="1089.01" y="1098.16" style="fill:#BDD1F9;" width="186.65" height="13.29"/>
			<rect x="1305.39" y="1098.16" style="fill:#BDD1F9;" width="294.58" height="13.29"/>
		</g>
		<rect x="1097.48" y="1148.39" style="fill:#DDE7FE;" width="531.34" height="307.98"/>
		<polygon style="fill:#BDD1F9;" points="1303.19,1223.48 1303.19,1381.28 1423.1,1302.38 		"/>
		<rect x="1090.62" y="965.34" style="fill:#7C9AF2;" width="214.77" height="18.36"/>
		<rect x="1330.78" y="965.34" style="fill:#7C9AF2;" width="168.87" height="18.36"/>
	</g>
	<g>
		<rect x="1929.19" y="934.09" style="fill:#BDD1F9;" width="200.69" height="8.97"/>
		<rect x="1929.19" y="963.88" style="fill:#BDD1F9;" width="87.36" height="8.97"/>
		<rect x="2029.53" y="963.88" style="fill:#BDD1F9;" width="100.34" height="8.97"/>
		<rect x="1929.19" y="990.74" style="fill:#BDD1F9;" width="121.02" height="8.97"/>
		<rect x="2064.37" y="990.74" style="fill:#BDD1F9;" width="65.51" height="8.97"/>
		<rect x="1929.19" y="1020.37" style="fill:#BDD1F9;" width="91.91" height="8.97"/>
		<rect x="2044.57" y="1020.37" style="fill:#BDD1F9;" width="85.31" height="8.97"/>
	</g>
	<g>
		<rect x="1862.35" y="1100.76" style="fill:#BDD1F9;" width="267.52" height="8.97"/>
		<rect x="1862.35" y="1130.55" style="fill:#BDD1F9;" width="116.45" height="8.97"/>
		<rect x="1996.12" y="1130.55" style="fill:#BDD1F9;" width="133.76" height="8.97"/>
		<rect x="1862.35" y="1157.41" style="fill:#BDD1F9;" width="161.32" height="8.97"/>
		<rect x="2042.55" y="1157.41" style="fill:#BDD1F9;" width="87.33" height="8.97"/>
		<rect x="1862.35" y="1187.04" style="fill:#BDD1F9;" width="122.52" height="8.97"/>
		<rect x="2016.15" y="1187.04" style="fill:#BDD1F9;" width="113.72" height="8.97"/>
	</g>
	<g>
		<path style="fill:#FA7267;" d="M1891.02,995.74c0-67.48-59.24-122.18-132.31-122.18c-73.07,0-132.31,54.7-132.31,122.18
			c0,32.73,13.94,62.45,36.63,84.38c20.56,19.87,32.38,47.09,32.38,75.68l0,0c0,23.13,18.75,41.88,41.88,41.88h42.85
			c23.13,0,41.88-18.75,41.88-41.88l0,0c0-28.59,11.82-55.81,32.38-75.68C1877.09,1058.2,1891.02,1028.47,1891.02,995.74z"/>
		<path style="fill:#060633;" d="M1781.92,1212.9c-0.82,0-1.51-0.64-1.55-1.47c-0.73-13.62,19.92-226.41,20.8-235.46
			c0.08-0.86,0.84-1.49,1.7-1.4c0.86,0.08,1.48,0.84,1.4,1.7c-0.21,2.21-21.5,221.61-20.78,234.99c0.05,0.86-0.61,1.59-1.47,1.64
			C1781.98,1212.9,1781.95,1212.9,1781.92,1212.9z"/>
		<path style="fill:#060633;" d="M1734.33,1212.9c-0.03,0-0.06,0-0.09,0c-0.86-0.05-1.52-0.78-1.47-1.64
			c0.72-13.38-20.57-232.78-20.78-234.99c-0.08-0.86,0.54-1.62,1.4-1.7c0.86-0.09,1.62,0.54,1.7,1.4
			c0.88,9.05,21.53,221.84,20.79,235.46C1735.83,1212.26,1735.15,1212.9,1734.33,1212.9z"/>
		<path style="fill:#060633;" d="M1754.12,1030.51c-4.03,0-8.21-1.43-11.68-4.12c-2.51,1.8-5.52,2.92-8.77,2.62
			c-4.42-0.4-8.68-3.43-11.4-8.11c-2.34-4.03-6.05-17.75-7.05-22.47c-0.09-0.42,0.18-0.84,0.6-0.92c0.41-0.09,0.83,0.18,0.92,0.6
			c1.04,4.89,4.71,18.28,6.87,22.01c2.47,4.24,6.28,6.99,10.2,7.34c2.7,0.24,5.25-0.64,7.41-2.1c-0.01-0.01-0.01-0.01-0.02-0.02
			c-5.7-5.21-7.82-12.53-8.6-17.75c-0.97-6.55-0.15-11.99,2.46-16.17c1.21-1.94,2.65-3.26,4.27-3.93c4.15-1.71,8.97,1.23,10.86,5.07
			c1.87,3.79,1.68,8.11,1.34,12.22c-0.43,5.11-1.13,10.97-3.96,15.93c-0.95,1.66-2.27,3.3-3.86,4.68
			c4.78,3.55,10.94,4.58,15.83,2.49c2.07-0.88,3.92-2.29,5.46-4.11c-1.96-1.18-3.56-2.84-4.52-4.85c-1.1-2.31-1.37-4.85-1.5-7.25
			c-0.38-7.21,0.4-14.39,2.33-21.34c0.07-0.25,0.26-0.45,0.51-0.53c2.45-0.79,4.92,0.68,6.18,2.37c1.32,1.76,1.82,3.93,2.22,6
			c0.95,4.9,1.86,11.3,0.46,17.42c-0.66,2.86-1.8,5.46-3.32,7.66c2.66,1.13,5.83,1.38,8.77,0.47c1.59-0.49,3.1-1.27,4.49-2.29
			c-1.07-1.63-1.82-3.38-2.32-4.74c-3.97-10.99-3.62-23.46,0.94-34.22c0.08-0.2,0.25-0.36,0.46-0.43c3.36-1.17,6.86,0.9,8.59,3.56
			c1.78,2.74,2.16,6.06,2.38,8.97c0.38,5.07,0.54,11.67-1.7,17.85c-1.35,3.74-3.53,6.94-6.21,9.28c1.35,1.67,3.13,3.05,5.41,3.25
			c1.89,0.15,3.56-0.56,4.64-1.2c3.75-2.2,5.98-6.91,5.29-11.21c-0.07-0.42,0.22-0.83,0.64-0.89c0.43-0.07,0.82,0.22,0.89,0.65
			c0.8,4.99-1.68,10.25-6.04,12.8c-1.83,1.07-3.75,1.55-5.56,1.4c-2.79-0.23-4.92-1.83-6.51-3.81c-1.53,1.12-3.19,1.98-4.94,2.52
			c-3.41,1.05-7.1,0.71-10.18-0.7c-1.74,2.13-3.87,3.79-6.26,4.8C1758.27,1030.12,1756.22,1030.51,1754.12,1030.51z M1741.92,988.55
			c-0.67,0-1.34,0.12-1.99,0.39c-1.31,0.54-2.51,1.66-3.54,3.31c-2.37,3.8-3.15,9.03-2.25,15.11c0.74,4.97,2.75,11.92,8.11,16.82
			c0.08,0.07,0.15,0.14,0.24,0.21c1.54-1.29,2.82-2.86,3.73-4.46c2.68-4.68,3.35-10.35,3.76-15.29c0.33-3.89,0.51-7.97-1.18-11.4
			C1747.53,990.68,1744.72,988.55,1741.92,988.55z M1762.7,991.19c-1.8,6.66-2.53,13.52-2.16,20.4c0.12,2.24,0.37,4.6,1.35,6.66
			c0.86,1.79,2.3,3.26,4.07,4.3c1.47-2.08,2.58-4.56,3.2-7.3c1.33-5.83,0.45-12.02-0.47-16.77c-0.36-1.89-0.81-3.87-1.93-5.37
			C1765.87,991.91,1764.21,990.92,1762.7,991.19z M1780.54,983.43c-4.28,10.32-4.56,22.23-0.77,32.75c0.38,1.05,1.06,2.69,2.08,4.27
			c2.43-2.16,4.41-5.1,5.66-8.55c2.14-5.89,1.99-12.29,1.61-17.2c-0.2-2.71-0.55-5.81-2.13-8.23
			C1785.68,984.46,1783.03,982.77,1780.54,983.43z"/>
		<path style="fill:#424BE1;" d="M1800.77,1264.79h-84.11c-6.14,0-11.12-4.98-11.12-11.12v-19.26h106.35v19.26
			C1811.89,1259.81,1806.91,1264.79,1800.77,1264.79z"/>
		<path style="fill:#060633;" d="M1765.26,1249.11c-31.32,0-59.2-8.93-60.96-9.5c-5.32-1.74-8.22-7.45-6.48-12.77
			c1.74-5.32,7.45-8.22,12.77-6.48c0.93,0.3,58.74,18.64,94.88,0.57c5-2.5,11.09-0.47,13.59,4.53c2.5,5,0.47,11.09-4.53,13.59
			C1799.38,1246.6,1781.84,1249.11,1765.26,1249.11z"/>
		<path style="fill:#424BE1;" d="M1765.26,1232.65c-31.32,0-59.2-8.93-60.96-9.5c-5.32-1.74-8.22-7.45-6.48-12.77
			c1.74-5.32,7.45-8.22,12.77-6.48c0.93,0.3,58.74,18.64,94.88,0.57c5-2.5,11.09-0.47,13.59,4.53c2.5,5,0.47,11.09-4.53,13.59
			C1799.38,1230.14,1781.84,1232.65,1765.26,1232.65z"/>
		<path style="fill:#060633;" d="M1765.26,1216.19c-31.32,0-59.2-8.93-60.96-9.5c-5.32-1.74-8.22-7.45-6.48-12.77
			c1.74-5.32,7.45-8.22,12.77-6.48c0.93,0.3,58.74,18.64,94.88,0.57c5-2.5,11.09-0.47,13.59,4.53c2.5,5,0.47,11.09-4.53,13.59
			C1799.38,1213.68,1781.84,1216.19,1765.26,1216.19z"/>
	</g>
	<g>
		<path style="fill:#FFFFFF;" d="M2045.57,1609.13c0,0,43.66,19.34,53.64,21.83s42.42-1.87,26.2-21.83
			c-16.22-19.96-29.94-9.36-59.26-24.33C2036.83,1569.83,2045.57,1609.13,2045.57,1609.13z"/>
		<path style="fill:#E85B54;" d="M1935.35,1498.57c0,0-82.81-18.25-99.18,28.54s64.39,68.68,79.38,72.05
			c14.99,3.37,49.43,6.24,57.23,8.73c7.8,2.5,36.8,4.99,40.86,6.86c4.05,1.87,45.85,11.54,45.85,11.54l31.19-42.73l-32.44-27.63
			l-13.84-50.87L1935.35,1498.57z"/>
		<path style="fill:#FFFFFF;" d="M1998.04,1303.49c0,0,67.37-3.74,100.12,43.98c32.75,47.72,58.01,90.76,13.1,131.93
			c-44.91,41.17-107.6,20.58-107.6,20.58l-83.27,5.15c0,0-86.08-6.08-65.5-86.55C1875.46,1338.11,1925.68,1305.36,1998.04,1303.49z"
			/>
		<path style="fill:#060633;" d="M2071.95,1397.05H1919.6c-2.24,0-4.06,1.82-4.06,4.06v106.04c0,2.24,1.82,4.06,4.06,4.06h152.35
			c2.24,0,4.06-1.82,4.06-4.06v-106.04C2076.01,1398.87,2074.19,1397.05,2071.95,1397.05z"/>
		<path style="fill:#FFFFFF;" d="M1954.99,1619.12c0,0-43.66,19.34-53.64,21.83c-9.98,2.49-42.42-1.87-26.2-21.83
			c16.22-19.96,29.94-9.36,59.26-24.33S1954.99,1619.12,1954.99,1619.12z"/>
		<path style="fill:#060633;" d="M2044.35,1443.91c-0.15,0-0.3-0.06-0.41-0.18c-0.2-0.22-0.18-0.57,0.05-0.77
			c35.81-31.62,58.01-27.9,58.94-27.73c0.29,0.05,0.49,0.34,0.43,0.63c-0.05,0.29-0.34,0.49-0.63,0.43
			c-0.22-0.04-22.65-3.75-58.02,27.48C2044.61,1443.87,2044.48,1443.91,2044.35,1443.91z"/>
		<path style="fill:#060633;" d="M1945.64,1443.91c-0.14,0-0.28-0.05-0.38-0.16c-22.54-22.54-56.93-30.19-57.27-30.26
			c-0.29-0.06-0.48-0.35-0.42-0.64c0.06-0.29,0.36-0.48,0.64-0.42c0.35,0.08,35.04,7.78,57.81,30.56c0.21,0.21,0.21,0.55,0,0.77
			C1945.92,1443.86,1945.78,1443.91,1945.64,1443.91z"/>
		<path style="fill:#060633;" d="M2056.05,1404.81c-0.25,0-0.48-0.18-0.53-0.43l-5.61-26.87c-0.06-0.29,0.13-0.58,0.42-0.64
			c0.29-0.07,0.58,0.13,0.64,0.42l5.61,26.87c0.06,0.29-0.13,0.58-0.42,0.64C2056.12,1404.81,2056.08,1404.81,2056.05,1404.81z"/>
		<path style="fill:#060633;" d="M1929.73,1410.23c-0.01,0-0.03,0-0.04,0c-0.3-0.02-0.52-0.29-0.5-0.58l2.34-29.01
			c0.02-0.3,0.31-0.52,0.58-0.5c0.3,0.02,0.52,0.28,0.5,0.58l-2.34,29.01C1930.25,1410.01,1930.01,1410.23,1929.73,1410.23z"/>
		<path style="fill:#EA6868;" d="M1924.18,1263.04c0,0-5.09-2.99-6.53-0.06c-3.66,7.48,5.13,10.49,9.71,9.88L1924.18,1263.04z"/>
		<path style="fill:#060633;" d="M2029.85,1542.31c-0.03,0-0.07,0-0.11-0.01c-4.01-0.8-13.93-4.07-22.69-6.95
			c-4.88-1.61-9.1-2.99-11.43-3.67c-6.35-1.84-33.08-4.32-33.35-4.35c-0.56-0.11-50.49-10-56.05-11.24
			c-0.29-0.07-0.48-0.36-0.41-0.65c0.07-0.29,0.34-0.47,0.65-0.41c5.54,1.23,55.47,11.13,55.97,11.23
			c1.05,0.09,27.05,2.51,33.49,4.38c2.35,0.68,6.58,2.07,11.47,3.68c8.29,2.73,18.61,6.12,22.56,6.92c0.29,0.06,0.49,0.34,0.43,0.64
			C2030.33,1542.13,2030.1,1542.31,2029.85,1542.31z"/>
		<path style="fill:#FB9391;" d="M2004.6,1303.35c-8.42-17.01-12.76-35.71-12.99-54.68c-0.08-6.43-0.58-13.63-1.22-21.75
			c-0.23-6.65-2.11-13.36-5.89-19.56c-10.17-16.68-31.31-23.61-49.39-16.2c-21.7,8.9-31.04,34.09-20.91,54.82
			c0.23,0.47,0.47,0.92,0.72,1.38l-0.04,0.01c5.83,11.91,18.2,55.5,44.38,48.41l3.59,17.68
			C1962.86,1313.46,1984.03,1319.45,2004.6,1303.35L2004.6,1303.35z"/>
		<path style="fill:#060633;" d="M1928.48,1256.88c-0.71-1.45-0.11-3.2,1.34-3.91c1.45-0.71,3.2-0.11,3.91,1.34
			c0.71,1.45,0.11,3.2-1.34,3.91C1930.93,1258.93,1929.18,1258.33,1928.48,1256.88z"/>
		<path style="fill:#060633;" d="M1963.16,1248.04c-0.71-1.45-0.11-3.2,1.34-3.91c1.45-0.71,3.2-0.11,3.91,1.34
			c0.71,1.45,0.11,3.2-1.34,3.91S1963.86,1249.49,1963.16,1248.04z"/>
		<path style="fill:#060633;" d="M1951.36,1280.19c-2.01,0-4.16-0.49-6.4-1.7c-0.32-0.17-0.43-0.57-0.26-0.88
			c0.17-0.32,0.57-0.43,0.88-0.26c10.41,5.62,18.46-5.67,18.8-6.16c0.21-0.3,0.61-0.36,0.91-0.16c0.29,0.21,0.37,0.61,0.16,0.91
			C1965.37,1272.03,1959.57,1280.19,1951.36,1280.19z"/>
		<polygon style="fill:#060633;" points="1990.82,1212.25 1992.93,1240.79 1985.73,1242.69 1966.4,1213.14 		"/>
		<path style="fill:#FB9391;" d="M1984.33,1242.41c0.01-1.45,0.59-2.84,1.56-3.92c2-2.22,5.85-5.47,10.35-3.92
			c6.6,2.26,3.43,18.36-8.23,16.84C1988.01,1251.4,1984.27,1250.11,1984.33,1242.41z"/>
		<path style="fill:#EA6868;" d="M1949.99,1268.72c-0.74,0-1.54-0.11-2.41-0.36c-1.15-0.33-1.81-0.76-2.14-1.38
			c-0.47-0.87-0.17-1.89,0.22-3.18c0.72-2.39,1.81-6-0.3-12.22c-0.12-0.34,0.07-0.71,0.41-0.83c0.34-0.12,0.71,0.07,0.83,0.41
			c2.25,6.62,1.04,10.62,0.32,13.01c-0.31,1.04-0.54,1.79-0.33,2.18c0.15,0.28,0.61,0.53,1.36,0.75c4.63,1.35,6.89-2.11,6.99-2.26
			c0.19-0.3,0.59-0.39,0.89-0.2c0.3,0.19,0.4,0.59,0.21,0.89C1956.01,1265.58,1953.99,1268.72,1949.99,1268.72z"/>
		<path style="fill:#060633;" d="M1957.56,1242.84c-0.67,0-1.33-0.35-1.69-0.98c-0.54-0.93-0.22-2.12,0.71-2.66
			c7.23-4.18,14.06-1.4,14.35-1.28c0.99,0.42,1.46,1.56,1.04,2.55c-0.41,0.99-1.55,1.46-2.54,1.05c-0.23-0.09-5.39-2.12-10.9,1.06
			C1958.23,1242.76,1957.89,1242.84,1957.56,1242.84z"/>
		<path style="fill:#060633;" d="M1922.26,1256.18c-0.4,0-0.8-0.12-1.15-0.38c-0.87-0.64-1.06-1.86-0.42-2.72
			c4.36-5.95,10.33-7.06,10.58-7.11c1.07-0.19,2.07,0.52,2.26,1.58c0.19,1.06-0.51,2.07-1.57,2.26c-0.08,0.01-4.74,0.95-8.12,5.57
			C1923.46,1255.9,1922.86,1256.18,1922.26,1256.18z"/>
		<path style="fill:#060633;" d="M1987.9,1204.38c2.48-3.41,0.67-9.01-3.33-10.33c-0.55-0.18-1.13-0.3-1.6-0.63
			c-0.65-0.47-0.96-1.26-1.24-2.02c-0.59-1.62-1.19-3.24-1.78-4.86c-0.19-0.51-0.4-1.06-0.84-1.38c-0.39-0.28-0.9-0.34-1.38-0.39
			c-2.8-0.28-5.88-0.49-8.16,1.15c-3.03-1.85-6.32-3.77-9.87-3.53c-1.13,0.08-2.24,0.37-3.37,0.39c-4.37,0.07-8.49-3.97-12.63-2.55
			c-1.08,0.37-2,1.08-2.99,1.64c-2.9,1.62-6.33,1.9-9.5,2.86c-3.18,0.96-6.45,3.06-7.02,6.33c-0.12,0.7-0.13,1.45-0.51,2.04
			c-0.37,0.57-1.01,0.88-1.62,1.14c-3.38,1.45-7.13,2.36-9.88,4.8c-2.75,2.45-3.93,7.24-1.2,9.71c-2.19,0.93-4.21,2.45-5.36,4.53
			c-1.15,2.09-1.32,4.79-0.09,6.83c0.24,0.4,0.55,0.81,0.57,1.28c0.04,0.87-0.84,1.44-1.54,1.96c-3.31,2.43-4.17,7.6-1.84,10.99
			c0.5,0.73,1.14,1.4,1.39,2.24c0.22,0.75,0.12,1.55,0.2,2.32c0.23,2.13,2,4,4.11,4.33c2.6,0.41,5.02-1.26,7.12-2.85
			c0.05,1,1.29,1.42,2.29,1.47c6.18,0.33,12.27-4.29,13.61-10.33c3.56,0.32,7.96,0.2,9.62-2.96c0.36-0.69,0.53-1.45,0.71-2.2
			c0.59-2.56,1.17-5.12,1.76-7.68c1.1-0.2,2.04,0.88,2.36,1.95c0.33,1.07,0.32,2.25,0.84,3.24c1.28,2.4,4.7,2.28,7.38,1.84
			c1.51-0.25,3.05-0.51,4.38-1.26c1.33-0.75,2.44-2.09,2.47-3.62c1.43,2.34,4.71,2.58,7.43,2.29c6.82-0.73,12.74-3.26,18.6-6.67
			c2.15-1.26,3.62-1.8,4-4.51C1991.36,1209.16,1990.19,1206.08,1987.9,1204.38z"/>
		<path style="fill:#FA7267;" d="M2058.54,1494.36c0,0,56.76-33.68,87.33,3.12c30.56,36.8-23.7,65.5-36.8,77.35
			c-13.1,11.85-28.07,19.96-44.29,21.83c-16.22,1.87-21.21,3.74-39.92,9.98c-18.71,6.24-34.31,11.85-36.18,13.1
			c-1.87,1.25-32.44,11.85-32.44,11.85s-31.19-31.19-31.81-40.55c0,0,30.56-27.19,39.3-35.11c8.73-7.93,50.53-17.91,58.01-27.89
			C2029.22,1518.07,2058.54,1494.36,2058.54,1494.36z"/>
		<circle style="fill:#FFFFFF;" cx="1995.77" cy="1454.13" r="5.46"/>
	</g>
</g>
</svg>
